ffmpeg started on 2025-05-13 at 10:04:56
Report written to "D:\Convert\FFMetrics\reports\psnr_report-6.txt"
Log level: 32
Command line:
ffmpeg -hide_banner -nostdin -i "G:\\\xc0\xed\xe8\xec\xe5\\\xce\xed\xe3\xee\xe8\xed\xe3\xe8\\!_35_\xcb\xe5\xf2\xee_2024\\DreamCast-1\\\xd3 \xec\xee\xe5\xe9 \xe6\xe5\xed\xfb \xed\xe5\xf2 \xfd\xec\xee\xf6\xe8\xe9\\[DC] Boku no Tsuma wa Kanjou ga Nai - 02_Telegram_HEVC.mkv" -i "G:\\\xc0\xed\xe8\xec\xe5\\\xce\xed\xe3\xee\xe8\xed\xe3\xe8\\!_35_\xcb\xe5\xf2\xee_2024\\DreamCast-1\\\xd3 \xec\xee\xe5\xe9 \xe6\xe5\xed\xfb \xed\xe5\xf2 \xfd\xec\xee\xf6\xe8\xe9\\[DC] Boku no Tsuma wa Kanjou ga Nai - 02_Telegram.mp4" -lavfi "[0:v]settb=AVTB,setpts=PTS-STARTPTS,format=pix_fmts=yuv420p10,fps=24000/1001,scale=1920:1080:flags=bicubic[main];[1:v]settb=AVTB,setpts=PTS-STARTPTS,format=pix_fmts=yuv420p,fps=24000/1001,scale=1920:1080:flags=bicubic[ref];[main][ref]psnr=eof_action=endall:stats_file='D\\:/Convert/FFMetrics/logs/psnr_logfile-6.txt'" -f null -
Input #0, matroska,webm, from 'G:\Аниме\Онгоинги\!_35_Лето_2024\DreamCast-1\У моей жены нет эмоций\[DC] Boku no Tsuma wa Kanjou ga Nai - 02_Telegram_HEVC.mkv':
  Metadata:
    COMPATIBLE_BRANDS: isomiso2avc1mp41
    MAJOR_BRAND     : isom
    MINOR_VERSION   : 512
    ENCODER         : Lavf61.7.100
  Duration: 00:23:46.60, start: -0.021000, bitrate: 1029 kb/s
  Stream #0:0: Video: hevc (Main 10), yuv420p10le(tv, bt709, progressive), 1920x1080 [SAR 1:1 DAR 16:9], 23.98 fps, 23.98 tbr, 1k tbn (default)
      Metadata:
        HANDLER_NAME    : VideoHandler
        VENDOR_ID       : [0][0][0][0]
        ENCODER         : Lavc61.19.100 libx265
        BPS             : 832745
        DURATION        : 00:23:46.508708333
        NUMBER_OF_FRAMES: 34202
        NUMBER_OF_BYTES : 148489814
        _STATISTICS_WRITING_APP: mkvpropedit v66.0.0 ('Josie') 64-bit
        _STATISTICS_WRITING_DATE_UTC: 2025-05-11 12:00:09
        _STATISTICS_TAGS: BPS DURATION NUMBER_OF_FRAMES NUMBER_OF_BYTES
  Stream #0:1: Audio: aac (LC), 48000 Hz, stereo, fltp (default)
      Metadata:
        HANDLER_NAME    : SoundHandler
        VENDOR_ID       : [0][0][0][0]
        ENCODER         : Lavc61.19.100 aac
        BPS             : 192748
        DURATION        : 00:23:46.602000000
        NUMBER_OF_FRAMES: 66873
        NUMBER_OF_BYTES : 34371885
        _STATISTICS_WRITING_APP: mkvpropedit v66.0.0 ('Josie') 64-bit
        _STATISTICS_WRITING_DATE_UTC: 2025-05-11 12:00:09
        _STATISTICS_TAGS: BPS DURATION NUMBER_OF_FRAMES NUMBER_OF_BYTES
Input #1, mov,mp4,m4a,3gp,3g2,mj2, from 'G:\Аниме\Онгоинги\!_35_Лето_2024\DreamCast-1\У моей жены нет эмоций\[DC] Boku no Tsuma wa Kanjou ga Nai - 02_Telegram.mp4':
  Metadata:
    major_brand     : isom
    minor_version   : 512
    compatible_brands: isomiso2avc1mp41
    encoder         : Lavf61.1.100
  Duration: 00:23:46.57, start: 0.000000, bitrate: 3859 kb/s
  Stream #1:0[0x1](und): Video: h264 (High) (avc1 / 0x31637661), yuv420p(tv, bt709, progressive), 1920x1080 [SAR 1:1 DAR 16:9], 3711 kb/s, 23.98 fps, 23.98 tbr, 24k tbn (default)
      Metadata:
        handler_name    : VideoHandler
        vendor_id       : [0][0][0][0]
        encoder         : Lavc61.3.100 h264_qsv
  Stream #1:1[0x2](und): Audio: aac (HE-AACv2) (mp4a / 0x6134706D), 48000 Hz, stereo, fltp, 144 kb/s (default)
      Metadata:
        handler_name    : SoundHandler
        vendor_id       : [0][0][0][0]
Stream mapping:
  Stream #0:0 (hevc) -> settb:default
  Stream #1:0 (h264) -> settb:default
  psnr:default -> Stream #0:0 (wrapped_avframe)
  Stream #0:1 -> #0:1 (aac (native) -> pcm_s16le (native))
Output #0, null, to 'pipe:':
  Metadata:
    COMPATIBLE_BRANDS: isomiso2avc1mp41
    MAJOR_BRAND     : isom
    MINOR_VERSION   : 512
    encoder         : Lavf61.7.100
  Stream #0:0: Video: wrapped_avframe, yuv420p10le(tv, bt709, progressive), 1920x1080 [SAR 1:1 DAR 16:9], q=2-31, 200 kb/s, 23.98 fps, 23.98 tbn
      Metadata:
        encoder         : Lavc61.19.100 wrapped_avframe
  Stream #0:1: Audio: pcm_s16le, 48000 Hz, stereo, s16, 1536 kb/s (default)
      Metadata:
        HANDLER_NAME    : SoundHandler
        VENDOR_ID       : [0][0][0][0]
        _STATISTICS_TAGS: BPS DURATION NUMBER_OF_FRAMES NUMBER_OF_BYTES
        BPS             : 192748
        DURATION        : 00:23:46.602000000
        NUMBER_OF_FRAMES: 66873
        NUMBER_OF_BYTES : 34371885
        _STATISTICS_WRITING_APP: mkvpropedit v66.0.0 ('Josie') 64-bit
        _STATISTICS_WRITING_DATE_UTC: 2025-05-11 12:00:09
        encoder         : Lavc61.19.100 pcm_s16le
frame=  179 fps=0.0 q=-0.0 size=N/A time=00:00:07.46 bitrate=N/A speed=14.6x    frame=  419 fps=411 q=-0.0 size=N/A time=00:00:17.47 bitrate=N/A speed=17.1x    frame=  672 fps=436 q=-0.0 size=N/A time=00:00:28.02 bitrate=N/A speed=18.2x    frame=  908 fps=443 q=-0.0 size=N/A time=00:00:37.87 bitrate=N/A speed=18.5x    frame= 1075 fps=418 q=-0.0 size=N/A time=00:00:44.83 bitrate=N/A speed=17.4x    frame= 1334 fps=432 q=-0.0 size=N/A time=00:00:55.63 bitrate=N/A speed=  18x    frame= 1571 fps=437 q=-0.0 size=N/A time=00:01:05.52 bitrate=N/A speed=18.2x    frame= 1822 fps=442 q=-0.0 size=N/A time=00:01:15.99 bitrate=N/A speed=18.4x    frame= 2078 fps=449 q=-0.0 size=N/A time=00:01:26.66 bitrate=N/A speed=18.7x    frame= 2333 fps=453 q=-0.0 size=N/A time=00:01:37.30 bitrate=N/A speed=18.9x    frame= 2585 fps=457 q=-0.0 size=N/A time=00:01:47.81 bitrate=N/A speed=  19x    frame= 2790 fps=451 q=-0.0 size=N/A time=00:01:56.36 bitrate=N/A speed=18.8x    frame= 3012 fps=450 q=-0.0 size=N/A time=00:02:05.62 bitrate=N/A speed=18.8x    frame= 3217 fps=446 q=-0.0 size=N/A time=00:02:14.17 bitrate=N/A speed=18.6x    frame= 3405 fps=440 q=-0.0 size=N/A time=00:02:22.01 bitrate=N/A speed=18.4x    frame= 3592 fps=436 q=-0.0 size=N/A time=00:02:29.81 bitrate=N/A speed=18.2x    frame= 3755 fps=429 q=-0.0 size=N/A time=00:02:36.61 bitrate=N/A speed=17.9x    frame= 3984 fps=430 q=-0.0 size=N/A time=00:02:46.16 bitrate=N/A speed=17.9x    frame= 4188 fps=428 q=-0.0 size=N/A time=00:02:54.67 bitrate=N/A speed=17.8x    frame= 4399 fps=427 q=-0.0 size=N/A time=00:03:03.47 bitrate=N/A speed=17.8x    frame= 4595 fps=425 q=-0.0 size=N/A time=00:03:11.64 bitrate=N/A speed=17.7x    frame= 4859 fps=428 q=-0.0 size=N/A time=00:03:22.66 bitrate=N/A speed=17.9x    frame= 5091 fps=430 q=-0.0 size=N/A time=00:03:32.33 bitrate=N/A speed=17.9x    frame= 5331 fps=431 q=-0.0 size=N/A time=00:03:42.34 bitrate=N/A speed=  18x    frame= 5577 fps=433 q=-0.0 size=N/A time=00:03:52.60 bitrate=N/A speed=18.1x    frame= 5830 fps=435 q=-0.0 size=N/A time=00:04:03.15 bitrate=N/A speed=18.2x    frame= 6074 fps=436 q=-0.0 size=N/A time=00:04:13.33 bitrate=N/A speed=18.2x    frame= 6325 fps=438 q=-0.0 size=N/A time=00:04:23.80 bitrate=N/A speed=18.3x    frame= 6570 fps=440 q=-0.0 size=N/A time=00:04:34.02 bitrate=N/A speed=18.3x    frame= 6832 fps=442 q=-0.0 size=N/A time=00:04:44.95 bitrate=N/A speed=18.4x    frame= 7079 fps=443 q=-0.0 size=N/A time=00:04:55.25 bitrate=N/A speed=18.5x    frame= 7309 fps=443 q=-0.0 size=N/A time=00:05:04.84 bitrate=N/A speed=18.5x    frame= 7490 fps=440 q=-0.0 size=N/A time=00:05:12.39 bitrate=N/A speed=18.4x    frame= 7732 fps=441 q=-0.0 size=N/A time=00:05:22.48 bitrate=N/A speed=18.4x    frame= 7975 fps=442 q=-0.0 size=N/A time=00:05:32.62 bitrate=N/A speed=18.4x    frame= 8199 fps=442 q=-0.0 size=N/A time=00:05:41.96 bitrate=N/A speed=18.4x    frame= 8446 fps=443 q=-0.0 size=N/A time=00:05:52.26 bitrate=N/A speed=18.5x    frame= 8714 fps=445 q=-0.0 size=N/A time=00:06:03.44 bitrate=N/A speed=18.6x    frame= 8916 fps=444 q=-0.0 size=N/A time=00:06:11.87 bitrate=N/A speed=18.5x    frame= 9146 fps=444 q=-0.0 size=N/A time=00:06:21.46 bitrate=N/A speed=18.5x    frame= 9386 fps=444 q=-0.0 size=N/A time=00:06:31.47 bitrate=N/A speed=18.5x    frame= 9637 fps=445 q=-0.0 size=N/A time=00:06:41.94 bitrate=N/A speed=18.6x    frame= 9894 fps=447 q=-0.0 size=N/A time=00:06:52.66 bitrate=N/A speed=18.6x    frame=10106 fps=446 q=-0.0 size=N/A time=00:07:01.50 bitrate=N/A speed=18.6x    frame=10345 fps=446 q=-0.0 size=N/A time=00:07:11.47 bitrate=N/A speed=18.6x    frame=10556 fps=445 q=-0.0 size=N/A time=00:07:20.27 bitrate=N/A speed=18.6x    frame=10756 fps=444 q=-0.0 size=N/A time=00:07:28.61 bitrate=N/A speed=18.5x    frame=11007 fps=445 q=-0.0 size=N/A time=00:07:39.08 bitrate=N/A speed=18.6x    frame=11245 fps=445 q=-0.0 size=N/A time=00:07:49.01 bitrate=N/A speed=18.6x    frame=11521 fps=447 q=-0.0 size=N/A time=00:08:00.52 bitrate=N/A speed=18.6x    frame=11768 fps=448 q=-0.0 size=N/A time=00:08:10.82 bitrate=N/A speed=18.7x    frame=12004 fps=448 q=-0.0 size=N/A time=00:08:20.66 bitrate=N/A speed=18.7x    frame=12246 fps=448 q=-0.0 size=N/A time=00:08:30.76 bitrate=N/A speed=18.7x    frame=12474 fps=448 q=-0.0 size=N/A time=00:08:40.26 bitrate=N/A speed=18.7x    frame=12731 fps=449 q=-0.0 size=N/A time=00:08:50.98 bitrate=N/A speed=18.7x    frame=12985 fps=450 q=-0.0 size=N/A time=00:09:01.58 bitrate=N/A speed=18.8x    frame=13207 fps=449 q=-0.0 size=N/A time=00:09:10.84 bitrate=N/A speed=18.7x    frame=13453 fps=450 q=-0.0 size=N/A time=00:09:21.10 bitrate=N/A speed=18.8x    frame=13712 fps=451 q=-0.0 size=N/A time=00:09:31.90 bitrate=N/A speed=18.8x    frame=13959 fps=451 q=-0.0 size=N/A time=00:09:42.20 bitrate=N/A speed=18.8x    frame=14211 fps=452 q=-0.0 size=N/A time=00:09:52.71 bitrate=N/A speed=18.9x    frame=14453 fps=452 q=-0.0 size=N/A time=00:10:02.81 bitrate=N/A speed=18.9x    frame=14686 fps=452 q=-0.0 size=N/A time=00:10:12.52 bitrate=N/A speed=18.9x    frame=14890 fps=451 q=-0.0 size=N/A time=00:10:21.03 bitrate=N/A speed=18.8x    frame=15116 fps=451 q=-0.0 size=N/A time=00:10:30.46 bitrate=N/A speed=18.8x    frame=15353 fps=451 q=-0.0 size=N/A time=00:10:40.34 bitrate=N/A speed=18.8x    frame=15608 fps=452 q=-0.0 size=N/A time=00:10:50.98 bitrate=N/A speed=18.9x    frame=15856 fps=452 q=-0.0 size=N/A time=00:11:01.32 bitrate=N/A speed=18.9x    frame=16075 fps=452 q=-0.0 size=N/A time=00:11:10.46 bitrate=N/A speed=18.8x    frame=16305 fps=452 q=-0.0 size=N/A time=00:11:20.05 bitrate=N/A speed=18.8x    frame=16552 fps=452 q=-0.0 size=N/A time=00:11:30.35 bitrate=N/A speed=18.9x    frame=16791 fps=452 q=-0.0 size=N/A time=00:11:40.32 bitrate=N/A speed=18.9x    frame=17057 fps=453 q=-0.0 size=N/A time=00:11:51.41 bitrate=N/A speed=18.9x    frame=17327 fps=454 q=-0.0 size=N/A time=00:12:02.68 bitrate=N/A speed=18.9x    frame=17603 fps=455 q=-0.0 size=N/A time=00:12:14.19 bitrate=N/A speed=  19x    frame=17850 fps=456 q=-0.0 size=N/A time=00:12:24.49 bitrate=N/A speed=  19x    frame=18064 fps=455 q=-0.0 size=N/A time=00:12:33.41 bitrate=N/A speed=  19x    frame=18327 fps=456 q=-0.0 size=N/A time=00:12:44.38 bitrate=N/A speed=  19x    frame=18579 fps=456 q=-0.0 size=N/A time=00:12:54.89 bitrate=N/A speed=  19x    frame=18828 fps=456 q=-0.0 size=N/A time=00:13:05.28 bitrate=N/A speed=  19x    frame=19087 fps=457 q=-0.0 size=N/A time=00:13:16.08 bitrate=N/A speed=19.1x    frame=19332 fps=457 q=-0.0 size=N/A time=00:13:26.30 bitrate=N/A speed=19.1x    frame=19600 fps=458 q=-0.0 size=N/A time=00:13:37.48 bitrate=N/A speed=19.1x    frame=19857 fps=459 q=-0.0 size=N/A time=00:13:48.20 bitrate=N/A speed=19.1x    frame=20113 fps=459 q=-0.0 size=N/A time=00:13:58.87 bitrate=N/A speed=19.1x    frame=20359 fps=459 q=-0.0 size=N/A time=00:14:09.13 bitrate=N/A speed=19.1x    frame=20607 fps=459 q=-0.0 size=N/A time=00:14:19.48 bitrate=N/A speed=19.2x    frame=20854 fps=460 q=-0.0 size=N/A time=00:14:29.78 bitrate=N/A speed=19.2x    frame=21069 fps=459 q=-0.0 size=N/A time=00:14:38.75 bitrate=N/A speed=19.2x    frame=21317 fps=459 q=-0.0 size=N/A time=00:14:49.09 bitrate=N/A speed=19.2x    frame=21557 fps=460 q=-0.0 size=N/A time=00:14:59.10 bitrate=N/A speed=19.2x    frame=21811 fps=460 q=-0.0 size=N/A time=00:15:09.70 bitrate=N/A speed=19.2x    frame=22037 fps=460 q=-0.0 size=N/A time=00:15:19.12 bitrate=N/A speed=19.2x    frame=22309 fps=460 q=-0.0 size=N/A time=00:15:30.47 bitrate=N/A speed=19.2x    frame=22561 fps=461 q=-0.0 size=N/A time=00:15:40.98 bitrate=N/A speed=19.2x    frame=22800 fps=461 q=-0.0 size=N/A time=00:15:50.95 bitrate=N/A speed=19.2x    frame=23052 fps=461 q=-0.0 size=N/A time=00:16:01.50 bitrate=N/A speed=19.2x    frame=23326 fps=462 q=-0.0 size=N/A time=00:16:12.88 bitrate=N/A speed=19.3x    frame=23596 fps=462 q=-0.0 size=N/A time=00:16:24.14 bitrate=N/A speed=19.3x    frame=23856 fps=463 q=-0.0 size=N/A time=00:16:34.99 bitrate=N/A speed=19.3x    frame=24083 fps=463 q=-0.0 size=N/A time=00:16:44.46 bitrate=N/A speed=19.3x    frame=24327 fps=463 q=-0.0 size=N/A time=00:16:54.63 bitrate=N/A speed=19.3x    frame=24583 fps=463 q=-0.0 size=N/A time=00:17:05.31 bitrate=N/A speed=19.3x    frame=24810 fps=463 q=-0.0 size=N/A time=00:17:14.78 bitrate=N/A speed=19.3x    frame=25055 fps=463 q=-0.0 size=N/A time=00:17:25.00 bitrate=N/A speed=19.3x    frame=25323 fps=463 q=-0.0 size=N/A time=00:17:36.18 bitrate=N/A speed=19.3x    frame=25597 fps=464 q=-0.0 size=N/A time=00:17:47.60 bitrate=N/A speed=19.4x    frame=25844 fps=464 q=-0.0 size=N/A time=00:17:57.91 bitrate=N/A speed=19.4x    frame=26104 fps=465 q=-0.0 size=N/A time=00:18:08.75 bitrate=N/A speed=19.4x    frame=26370 fps=465 q=-0.0 size=N/A time=00:18:19.84 bitrate=N/A speed=19.4x    frame=26636 fps=466 q=-0.0 size=N/A time=00:18:30.94 bitrate=N/A speed=19.4x    frame=26873 fps=465 q=-0.0 size=N/A time=00:18:40.82 bitrate=N/A speed=19.4x    frame=27111 fps=465 q=-0.0 size=N/A time=00:18:50.75 bitrate=N/A speed=19.4x    frame=27368 fps=466 q=-0.0 size=N/A time=00:19:01.47 bitrate=N/A speed=19.4x    frame=27608 fps=466 q=-0.0 size=N/A time=00:19:11.48 bitrate=N/A speed=19.4x    frame=27856 fps=466 q=-0.0 size=N/A time=00:19:21.82 bitrate=N/A speed=19.4x    frame=28121 fps=466 q=-0.0 size=N/A time=00:19:32.88 bitrate=N/A speed=19.4x    frame=28395 fps=467 q=-0.0 size=N/A time=00:19:44.34 bitrate=N/A speed=19.5x    frame=28657 fps=467 q=-0.0 size=N/A time=00:19:55.23 bitrate=N/A speed=19.5x    frame=28878 fps=467 q=-0.0 size=N/A time=00:20:04.45 bitrate=N/A speed=19.5x    frame=29130 fps=467 q=-0.0 size=N/A time=00:20:14.96 bitrate=N/A speed=19.5x    frame=29398 fps=467 q=-0.0 size=N/A time=00:20:26.14 bitrate=N/A speed=19.5x    frame=29647 fps=468 q=-0.0 size=N/A time=00:20:36.52 bitrate=N/A speed=19.5x    frame=29907 fps=468 q=-0.0 size=N/A time=00:20:47.37 bitrate=N/A speed=19.5x    frame=30168 fps=468 q=-0.0 size=N/A time=00:20:58.25 bitrate=N/A speed=19.5x    frame=30427 fps=468 q=-0.0 size=N/A time=00:21:09.05 bitrate=N/A speed=19.5x    frame=30664 fps=468 q=-0.0 size=N/A time=00:21:18.94 bitrate=N/A speed=19.5x    frame=30910 fps=468 q=-0.0 size=N/A time=00:21:29.20 bitrate=N/A speed=19.5x    frame=31133 fps=468 q=-0.0 size=N/A time=00:21:38.50 bitrate=N/A speed=19.5x    frame=31360 fps=468 q=-0.0 size=N/A time=00:21:47.97 bitrate=N/A speed=19.5x    frame=31543 fps=467 q=-0.0 size=N/A time=00:21:55.60 bitrate=N/A speed=19.5x    frame=31732 fps=466 q=-0.0 size=N/A time=00:22:03.48 bitrate=N/A speed=19.4x    frame=31937 fps=466 q=-0.0 size=N/A time=00:22:12.03 bitrate=N/A speed=19.4x    frame=32127 fps=465 q=-0.0 size=N/A time=00:22:19.96 bitrate=N/A speed=19.4x    frame=32323 fps=464 q=-0.0 size=N/A time=00:22:28.13 bitrate=N/A speed=19.4x    frame=32531 fps=464 q=-0.0 size=N/A time=00:22:36.81 bitrate=N/A speed=19.3x    frame=32754 fps=464 q=-0.0 size=N/A time=00:22:46.11 bitrate=N/A speed=19.3x    frame=33006 fps=464 q=-0.0 size=N/A time=00:22:56.62 bitrate=N/A speed=19.3x    frame=33254 fps=464 q=-0.0 size=N/A time=00:23:06.96 bitrate=N/A speed=19.3x    frame=33530 fps=464 q=-0.0 size=N/A time=00:23:18.48 bitrate=N/A speed=19.4x    frame=33783 fps=465 q=-0.0 size=N/A time=00:23:29.03 bitrate=N/A speed=19.4x    frame=34027 fps=465 q=-0.0 size=N/A time=00:23:39.20 bitrate=N/A speed=19.4x    [Parsed_psnr_10 @ 0000019e565da7c0] PSNR y:48.458169 u:51.534043 v:51.275479 average:49.236776 min:40.718741 max:inf
[out#0/null @ 0000019e498b2d40] video:14696KiB audio:267492KiB subtitle:0KiB other streams:0KiB global headers:0KiB muxing overhead: unknown
frame=34202 fps=464 q=-0.0 Lsize=N/A time=00:23:46.50 bitrate=N/A speed=19.4x    
